{
  "accessors": [
    {
      "bufferView": 1,
      "componentType": 5126,
      "type": "VEC3",
      "count": 7040,
      "min": [-40, -40, 0],
      "max": [16, 16, 1]
    },
    {
      "bufferView": 1,
      "componentType": 5126,
      "type": "VEC3",
      "byteOffset": 12,
      "count": 7040
    },
    {
      "bufferView": 1,
      "componentType": 5126,
      "type": "VEC2",
      "byteOffset": 24,
      "count": 7040
    },
    {
      "bufferView": 2,
      "componentType": 5125,
      "type": "SCALAR",
      "count": 32064
    }
  ],
  "asset": {
    "generator": "goxel",
    "version": "2.0"
  },
  "bufferViews": [
    {
      "buffer": 0,
      "byteLength": 216
    },
    {
      "buffer": 1,
      "byteLength": 281600,
      "byteStride": 40
    },
    {
      "buffer": 2,
      "byteLength": 128256
    }
  ],
  "buffers": [
    {
      "uri": "data:application/octet-stream;base64,",
      "byteLength": 216
    },
    {
      "uri": "data:application/octet-stream;base64,",
      "byteLength": 281600
    },
    {
      "uri": "data:application/octet-stream;base64,",
      "byteLength": 128256
    }
  ],
  "images": [
    {
      "bufferView": 0,
      "mimeType": "image/png"
    }
  ],
  "meshes": [
    {
      "primitives": [
        {
          "indices": 3,
          "material": 4,
          "attributes": {
            "POSITION": 0,
            "NORMAL": 1,
            "TEXCOORD_0": 2
          }
        }
      ]
    }
  ],
  "materials": [
    {
      "name": "Material.1",
      "pbrMetallicRoughness": {
        "baseColorTexture": {
          "index": 0
        },
        "metallicFactor": 0
      }
    },
    {
      "name": "Material.1",
      "pbrMetallicRoughness": {
        "baseColorTexture": {
          "index": 0
        },
        "metallicFactor": 0
      }
    },
    {
      "name": "Material.1",
      "pbrMetallicRoughness": {
        "baseColorTexture": {
          "index": 0
        },
        "metallicFactor": 0
      }
    },
    {
      "name": "Material.1",
      "pbrMetallicRoughness": {
        "baseColorTexture": {
          "index": 0
        },
        "metallicFactor": 0
      }
    },
    {
      "name": "Material.1",
      "pbrMetallicRoughness": {
        "baseColorTexture": {
          "index": 0
        },
        "metallicFactor": 0
      }
    }
  ],
  "nodes": [
    {
      "children": [ 1 ],
      "matrix": [1, 0, 0, 0, 0, 0, -1, 0, 0, 1, 0, 0, 0, 0, 0, 1]
    },
    {
      "mesh": 0,
      "name": "Layer.1"
    }
  ],
  "scenes": [
    {
      "nodes": [ 0 ]
    }
  ],
  "textures": [
    {
      "source": 0
    }
  ]
}
