{
  "accessors": [
    {
      "bufferView": 1,
      "componentType": 5126,
      "type": "VEC3",
      "count": 1806,
      "min": [40, -16, 0],
      "max": [56, 16, 1]
    },
    {
      "bufferView": 1,
      "componentType": 5126,
      "type": "VEC3",
      "byteOffset": 12,
      "count": 1806
    },
    {
      "bufferView": 1,
      "componentType": 5126,
      "type": "VEC2",
      "byteOffset": 24,
      "count": 1806
    },
    {
      "bufferView": 2,
      "componentType": 5125,
      "type": "SCALAR",
      "count": 6720
    },
    {
      "bufferView": 3,
      "componentType": 5126,
      "type": "VEC3",
      "count": 1806,
      "min": [40, 16, 0],
      "max": [56, 48, 1]
    },
    {
      "bufferView": 3,
      "componentType": 5126,
      "type": "VEC3",
      "byteOffset": 12,
      "count": 1806
    },
    {
      "bufferView": 3,
      "componentType": 5126,
      "type": "VEC2",
      "byteOffset": 24,
      "count": 1806
    },
    {
      "bufferView": 4,
      "componentType": 5125,
      "type": "SCALAR",
      "count": 6720
    },
    {
      "bufferView": 5,
      "componentType": 5126,
      "type": "VEC3",
      "count": 1806,
      "min": [-16, 40, 0],
      "max": [16, 56, 1]
    },
    {
      "bufferView": 5,
      "componentType": 5126,
      "type": "VEC3",
      "byteOffset": 12,
      "count": 1806
    },
    {
      "bufferView": 5,
      "componentType": 5126,
      "type": "VEC2",
      "byteOffset": 24,
      "count": 1806
    },
    {
      "bufferView": 6,
      "componentType": 5125,
      "type": "SCALAR",
      "count": 6720
    },
    {
      "bufferView": 7,
      "componentType": 5126,
      "type": "VEC3",
      "count": 2118,
      "min": [16, 40, 0],
      "max": [56, 56, 1]
    },
    {
      "bufferView": 7,
      "componentType": 5126,
      "type": "VEC3",
      "byteOffset": 12,
      "count": 2118
    },
    {
      "bufferView": 7,
      "componentType": 5126,
      "type": "VEC2",
      "byteOffset": 24,
      "count": 2118
    },
    {
      "bufferView": 8,
      "componentType": 5125,
      "type": "SCALAR",
      "count": 7656
    }
  ],
  "asset": {
    "generator": "goxel",
    "version": "2.0"
  },
  "bufferViews": [
    {
      "buffer": 0,
      "byteLength": 226
    },
    {
      "buffer": 1,
      "byteLength": 72240,
      "byteStride": 40
    },
    {
      "buffer": 2,
      "byteLength": 26880
    },
    {
      "buffer": 3,
      "byteLength": 72240,
      "byteStride": 40
    },
    {
      "buffer": 4,
      "byteLength": 26880
    },
    {
      "buffer": 5,
      "byteLength": 72240,
      "byteStride": 40
    },
    {
      "buffer": 6,
      "byteLength": 26880
    },
    {
      "buffer": 7,
      "byteLength": 84720,
      "byteStride": 40
    },
    {
      "buffer": 8,
      "byteLength": 30624
    }
  ],
  "buffers": [
    {
      "uri": "data:application/octet-stream;base64,",
      "byteLength": 226
    },
    {
      "uri": "data:application/octet-stream;base64,",
      "byteLength": 72240
    },
    {
      "uri": "data:application/octet-stream;base64,",
      "byteLength": 26880
    },
    {
      "uri": "data:application/octet-stream;base64,",
      "byteLength": 72240
    },
    {
      "uri": "data:application/octet-stream;base64,",
      "byteLength": 26880
    },
    {
      "uri": "data:application/octet-stream;base64,",
      "byteLength": 72240
    },
    {
      "uri": "data:application/octet-stream;base64,",
      "byteLength": 26880
    },
    {
      "uri": "data:application/octet-stream;base64,",
      "byteLength": 84720
    },
    {
      "uri": "data:application/octet-stream;base64,",
      "byteLength": 30624
    }
  ],
  "images": [
    {
      "bufferView": 0,
      "mimeType": "image/png"
    }
  ],
  "meshes": [
    {
      "primitives": [
        {
          "indices": 3,
          "material": 0,
          "attributes": {
            "POSITION": 0,
            "NORMAL": 1,
            "TEXCOORD_0": 2
          }
        }
      ]
    },
    {
      "primitives": [
        {
          "indices": 7,
          "material": 0,
          "attributes": {
            "POSITION": 4,
            "NORMAL": 5,
            "TEXCOORD_0": 6
          }
        }
      ]
    },
    {
      "primitives": [
        {
          "indices": 11,
          "material": 0,
          "attributes": {
            "POSITION": 8,
            "NORMAL": 9,
            "TEXCOORD_0": 10
          }
        }
      ]
    },
    {
      "primitives": [
        {
          "indices": 15,
          "material": 0,
          "attributes": {
            "POSITION": 12,
            "NORMAL": 13,
            "TEXCOORD_0": 14
          }
        }
      ]
    }
  ],
  "materials": [
    {
      "name": "Material.1",
      "pbrMetallicRoughness": {
        "baseColorTexture": {
          "index": 0
        },
        "metallicFactor": 0.200000003,
        "roughnessFactor": 0.5
      }
    },
    {
      "name": "Material.1",
      "pbrMetallicRoughness": {
        "baseColorTexture": {
          "index": 0
        },
        "metallicFactor": 0.200000003,
        "roughnessFactor": 0.5
      }
    },
    {
      "name": "Material.1",
      "pbrMetallicRoughness": {
        "baseColorTexture": {
          "index": 0
        },
        "metallicFactor": 0.200000003,
        "roughnessFactor": 0.5
      }
    },
    {
      "name": "Material.1",
      "pbrMetallicRoughness": {
        "baseColorTexture": {
          "index": 0
        },
        "metallicFactor": 0.200000003,
        "roughnessFactor": 0.5
      }
    },
    {
      "name": "Material.1",
      "pbrMetallicRoughness": {
        "baseColorTexture": {
          "index": 0
        },
        "metallicFactor": 0.200000003,
        "roughnessFactor": 0.5
      }
    }
  ],
  "nodes": [
    {
      "children": [ 1, 2, 3, 4 ],
      "matrix": [1, 0, 0, 0, 0, 0, -1, 0, 0, 1, 0, 0, 0, 0, 0, 1]
    },
    {
      "mesh": 0,
      "name": "Layer.1"
    },
    {
      "mesh": 1,
      "name": "Layer.1"
    },
    {
      "mesh": 2,
      "name": "Layer.1"
    },
    {
      "mesh": 3,
      "name": "Layer.1"
    }
  ],
  "scenes": [
    {
      "nodes": [ 0 ]
    }
  ],
  "textures": [
    {
      "source": 0
    }
  ]
}
